<?xml version="1.0" standalone="no"?><!DOCTYPE svg PUBLIC "-//W3C//DTD SVG 1.1//EN" "http://www.w3.org/Graphics/SVG/1.1/DTD/svg11.dtd"><svg t="1682183887492" class="icon" viewBox="0 0 1024 1024" version="1.1" xmlns="http://www.w3.org/2000/svg" p-id="26055" xmlns:xlink="http://www.w3.org/1999/xlink" width="200" height="200"><path d="M937.6 780.8a22.4 22.4 0 0 1 22.4 22.4v134.4a22.4 22.4 0 0 1-22.4 22.4h-448a22.4 22.4 0 0 1-22.4-22.4V803.2a22.4 22.4 0 0 1 22.4-22.4h448z m0-347.2A22.4 22.4 0 0 1 960 456v134.4a22.4 22.4 0 0 1-22.4 22.4h-448a22.4 22.4 0 0 1-22.4-22.4V456a22.4 22.4 0 0 1 22.4-22.4h448z m0-347.2a22.4 22.4 0 0 1 22.4 22.4v134.4a22.4 22.4 0 0 1-22.4 22.4H400a22.4 22.4 0 0 1-22.4-22.4V108.8c0-12.371 10.029-22.4 22.4-22.4h537.6z" fill="#2075CC" p-id="26056"></path><path d="M288 86.4v179.2a22.4 22.4 0 0 1-22.4 22.4h-44.8v190.4h134.4c12.371 0 22.4 10.029 22.4 22.4v44.8c0 12.371-10.029 22.4-22.4 22.4H220.8v257.6h134.4c12.371 0 22.4 10.029 22.4 22.4v44.8c0 12.371-10.029 22.4-22.4 22.4H153.6a22.4 22.4 0 0 1-22.4-22.4V288H86.4A22.4 22.4 0 0 1 64 265.6V86.4A22.4 22.4 0 0 1 86.4 64h179.2A22.4 22.4 0 0 1 288 86.4z" fill="#FA8B14" p-id="26057"></path></svg>